<svg width="718" height="802" xmlns="http://www.w3.org/2000/svg" xmlns:xlink="http://www.w3.org/1999/xlink"><defs><filter x="0%" y="0%" width="100%" height="100%" filterUnits="objectBoundingBox" id="h"><feGaussianBlur in="SourceGraphic"/></filter><filter x="0%" y="0%" width="100%" height="100%" filterUnits="objectBoundingBox" id="i"><feGaussianBlur in="SourceGraphic"/></filter><filter x="0%" y="0%" width="100%" height="100%" filterUnits="objectBoundingBox" id="j"><feGaussianBlur in="SourceGraphic"/></filter><filter x="0%" y="0%" width="100%" height="100%" filterUnits="objectBoundingBox" id="k"><feGaussianBlur in="SourceGraphic"/></filter><filter x="0%" y="0%" width="100%" height="100%" filterUnits="objectBoundingBox" id="l"><feGaussianBlur in="SourceGraphic"/></filter><filter x="0%" y="0%" width="100%" height="100%" filterUnits="objectBoundingBox" id="m"><feGaussianBlur in="SourceGraphic"/></filter><filter x="-90.9%" y="-2.1%" width="281.9%" height="104.2%" filterUnits="objectBoundingBox" id="o"><feOffset dx="1" in="SourceAlpha" result="shadowOffsetInner1"/><feComposite in="shadowOffsetInner1" in2="SourceAlpha" operator="arithmetic" k2="-1" k3="1" result="shadowInnerInner1"/><feColorMatrix values="0 0 0 0 0.407843137 0 0 0 0 0.529411765 0 0 0 0 0.603921569 0 0 0 1 0" in="shadowInnerInner1" result="shadowMatrixInner1"/><feGaussianBlur stdDeviation=".5" in="SourceAlpha" result="shadowBlurInner2"/><feOffset dy="-3" in="shadowBlurInner2" result="shadowOffsetInner2"/><feComposite in="shadowOffsetInner2" in2="SourceAlpha" operator="arithmetic" k2="-1" k3="1" result="shadowInnerInner2"/><feColorMatrix values="0 0 0 0 0.168627451 0 0 0 0 0.250980392 0 0 0 0 0.31372549 0 0 0 1 0" in="shadowInnerInner2" result="shadowMatrixInner2"/><feGaussianBlur stdDeviation=".5" in="SourceAlpha" result="shadowBlurInner3"/><feOffset dy="3" in="shadowBlurInner3" result="shadowOffsetInner3"/><feComposite in="shadowOffsetInner3" in2="SourceAlpha" operator="arithmetic" k2="-1" k3="1" result="shadowInnerInner3"/><feColorMatrix values="0 0 0 0 0.168627451 0 0 0 0 0.250980392 0 0 0 0 0.31372549 0 0 0 1 0" in="shadowInnerInner3" result="shadowMatrixInner3"/><feOffset dy="-1" in="SourceAlpha" result="shadowOffsetInner4"/><feComposite in="shadowOffsetInner4" in2="SourceAlpha" operator="arithmetic" k2="-1" k3="1" result="shadowInnerInner4"/><feColorMatrix values="0 0 0 0 0.298039216 0 0 0 0 0.364705882 0 0 0 0 0.396078431 0 0 0 1 0" in="shadowInnerInner4" result="shadowMatrixInner4"/><feMerge><feMergeNode in="shadowMatrixInner1"/><feMergeNode in="shadowMatrixInner2"/><feMergeNode in="shadowMatrixInner3"/><feMergeNode in="shadowMatrixInner4"/></feMerge></filter><filter x="-90.9%" y="-3.4%" width="281.9%" height="106.7%" filterUnits="objectBoundingBox" id="q"><feGaussianBlur stdDeviation=".5" in="SourceAlpha" result="shadowBlurInner1"/><feOffset dy="-3" in="shadowBlurInner1" result="shadowOffsetInner1"/><feComposite in="shadowOffsetInner1" in2="SourceAlpha" operator="arithmetic" k2="-1" k3="1" result="shadowInnerInner1"/><feColorMatrix values="0 0 0 0 0.168627451 0 0 0 0 0.250980392 0 0 0 0 0.31372549 0 0 0 1 0" in="shadowInnerInner1" result="shadowMatrixInner1"/><feGaussianBlur stdDeviation=".5" in="SourceAlpha" result="shadowBlurInner2"/><feOffset dx="-1" dy="3" in="shadowBlurInner2" result="shadowOffsetInner2"/><feComposite in="shadowOffsetInner2" in2="SourceAlpha" operator="arithmetic" k2="-1" k3="1" result="shadowInnerInner2"/><feColorMatrix values="0 0 0 0 0.031372549 0 0 0 0 0.101960784 0 0 0 0 0.145098039 0 0 0 1 0" in="shadowInnerInner2" result="shadowMatrixInner2"/><feOffset dy="2" in="SourceAlpha" result="shadowOffsetInner3"/><feComposite in="shadowOffsetInner3" in2="SourceAlpha" operator="arithmetic" k2="-1" k3="1" result="shadowInnerInner3"/><feColorMatrix values="0 0 0 0 0.435230792 0 0 0 0 0.513756692 0 0 0 0 0.5567922 0 0 0 1 0" in="shadowInnerInner3" result="shadowMatrixInner3"/><feOffset dy="-2" in="SourceAlpha" result="shadowOffsetInner4"/><feComposite in="shadowOffsetInner4" in2="SourceAlpha" operator="arithmetic" k2="-1" k3="1" result="shadowInnerInner4"/><feColorMatrix values="0 0 0 0 0.435294118 0 0 0 0 0.51372549 0 0 0 0 0.556862745 0 0 0 1 0" in="shadowInnerInner4" result="shadowMatrixInner4"/><feOffset dy="-1" in="SourceAlpha" result="shadowOffsetInner5"/><feComposite in="shadowOffsetInner5" in2="SourceAlpha" operator="arithmetic" k2="-1" k3="1" result="shadowInnerInner5"/><feColorMatrix values="0 0 0 0 0.031372549 0 0 0 0 0.101960784 0 0 0 0 0.145098039 0 0 0 1 0" in="shadowInnerInner5" result="shadowMatrixInner5"/><feOffset dy="1" in="SourceAlpha" result="shadowOffsetInner6"/><feComposite in="shadowOffsetInner6" in2="SourceAlpha" operator="arithmetic" k2="-1" k3="1" result="shadowInnerInner6"/><feColorMatrix values="0 0 0 0 0.031372549 0 0 0 0 0.101960784 0 0 0 0 0.145098039 0 0 0 1 0" in="shadowInnerInner6" result="shadowMatrixInner6"/><feMerge><feMergeNode in="shadowMatrixInner1"/><feMergeNode in="shadowMatrixInner2"/><feMergeNode in="shadowMatrixInner3"/><feMergeNode in="shadowMatrixInner4"/><feMergeNode in="shadowMatrixInner5"/><feMergeNode in="shadowMatrixInner6"/></feMerge></filter><filter x="-90.9%" y="-6.5%" width="281.9%" height="113%" filterUnits="objectBoundingBox" id="s"><feGaussianBlur stdDeviation=".5" in="SourceAlpha" result="shadowBlurInner1"/><feOffset dy="-3" in="shadowBlurInner1" result="shadowOffsetInner1"/><feComposite in="shadowOffsetInner1" in2="SourceAlpha" operator="arithmetic" k2="-1" k3="1" result="shadowInnerInner1"/><feColorMatrix values="0 0 0 0 0.168627451 0 0 0 0 0.250980392 0 0 0 0 0.31372549 0 0 0 1 0" in="shadowInnerInner1" result="shadowMatrixInner1"/><feGaussianBlur stdDeviation=".5" in="SourceAlpha" result="shadowBlurInner2"/><feOffset dx="-1" dy="3" in="shadowBlurInner2" result="shadowOffsetInner2"/><feComposite in="shadowOffsetInner2" in2="SourceAlpha" operator="arithmetic" k2="-1" k3="1" result="shadowInnerInner2"/><feColorMatrix values="0 0 0 0 0.031372549 0 0 0 0 0.101960784 0 0 0 0 0.145098039 0 0 0 1 0" in="shadowInnerInner2" result="shadowMatrixInner2"/><feOffset dy="2" in="SourceAlpha" result="shadowOffsetInner3"/><feComposite in="shadowOffsetInner3" in2="SourceAlpha" operator="arithmetic" k2="-1" k3="1" result="shadowInnerInner3"/><feColorMatrix values="0 0 0 0 0.435230792 0 0 0 0 0.513756692 0 0 0 0 0.5567922 0 0 0 1 0" in="shadowInnerInner3" result="shadowMatrixInner3"/><feOffset dy="-2" in="SourceAlpha" result="shadowOffsetInner4"/><feComposite in="shadowOffsetInner4" in2="SourceAlpha" operator="arithmetic" k2="-1" k3="1" result="shadowInnerInner4"/><feColorMatrix values="0 0 0 0 0.435294118 0 0 0 0 0.51372549 0 0 0 0 0.556862745 0 0 0 1 0" in="shadowInnerInner4" result="shadowMatrixInner4"/><feOffset dy="-1" in="SourceAlpha" result="shadowOffsetInner5"/><feComposite in="shadowOffsetInner5" in2="SourceAlpha" operator="arithmetic" k2="-1" k3="1" result="shadowInnerInner5"/><feColorMatrix values="0 0 0 0 0.031372549 0 0 0 0 0.101960784 0 0 0 0 0.145098039 0 0 0 1 0" in="shadowInnerInner5" result="shadowMatrixInner5"/><feOffset dy="1" in="SourceAlpha" result="shadowOffsetInner6"/><feComposite in="shadowOffsetInner6" in2="SourceAlpha" operator="arithmetic" k2="-1" k3="1" result="shadowInnerInner6"/><feColorMatrix values="0 0 0 0 0.031372549 0 0 0 0 0.101960784 0 0 0 0 0.145098039 0 0 0 1 0" in="shadowInnerInner6" result="shadowMatrixInner6"/><feMerge><feMergeNode in="shadowMatrixInner1"/><feMergeNode in="shadowMatrixInner2"/><feMergeNode in="shadowMatrixInner3"/><feMergeNode in="shadowMatrixInner4"/><feMergeNode in="shadowMatrixInner5"/><feMergeNode in="shadowMatrixInner6"/></feMerge></filter><filter x="-90.9%" y="-3.4%" width="281.9%" height="106.7%" filterUnits="objectBoundingBox" id="u"><feGaussianBlur stdDeviation=".5" in="SourceAlpha" result="shadowBlurInner1"/><feOffset dy="-3" in="shadowBlurInner1" result="shadowOffsetInner1"/><feComposite in="shadowOffsetInner1" in2="SourceAlpha" operator="arithmetic" k2="-1" k3="1" result="shadowInnerInner1"/><feColorMatrix values="0 0 0 0 0.168627451 0 0 0 0 0.250980392 0 0 0 0 0.31372549 0 0 0 1 0" in="shadowInnerInner1" result="shadowMatrixInner1"/><feGaussianBlur stdDeviation=".5" in="SourceAlpha" result="shadowBlurInner2"/><feOffset dx="-1" dy="3" in="shadowBlurInner2" result="shadowOffsetInner2"/><feComposite in="shadowOffsetInner2" in2="SourceAlpha" operator="arithmetic" k2="-1" k3="1" result="shadowInnerInner2"/><feColorMatrix values="0 0 0 0 0.031372549 0 0 0 0 0.101960784 0 0 0 0 0.145098039 0 0 0 1 0" in="shadowInnerInner2" result="shadowMatrixInner2"/><feOffset dy="2" in="SourceAlpha" result="shadowOffsetInner3"/><feComposite in="shadowOffsetInner3" in2="SourceAlpha" operator="arithmetic" k2="-1" k3="1" result="shadowInnerInner3"/><feColorMatrix values="0 0 0 0 0.435230792 0 0 0 0 0.513756692 0 0 0 0 0.5567922 0 0 0 1 0" in="shadowInnerInner3" result="shadowMatrixInner3"/><feOffset dy="-2" in="SourceAlpha" result="shadowOffsetInner4"/><feComposite in="shadowOffsetInner4" in2="SourceAlpha" operator="arithmetic" k2="-1" k3="1" result="shadowInnerInner4"/><feColorMatrix values="0 0 0 0 0.435294118 0 0 0 0 0.51372549 0 0 0 0 0.556862745 0 0 0 1 0" in="shadowInnerInner4" result="shadowMatrixInner4"/><feOffset dy="-1" in="SourceAlpha" result="shadowOffsetInner5"/><feComposite in="shadowOffsetInner5" in2="SourceAlpha" operator="arithmetic" k2="-1" k3="1" result="shadowInnerInner5"/><feColorMatrix values="0 0 0 0 0.031372549 0 0 0 0 0.101960784 0 0 0 0 0.145098039 0 0 0 1 0" in="shadowInnerInner5" result="shadowMatrixInner5"/><feOffset dy="1" in="SourceAlpha" result="shadowOffsetInner6"/><feComposite in="shadowOffsetInner6" in2="SourceAlpha" operator="arithmetic" k2="-1" k3="1" result="shadowInnerInner6"/><feColorMatrix values="0 0 0 0 0.031372549 0 0 0 0 0.101960784 0 0 0 0 0.145098039 0 0 0 1 0" in="shadowInnerInner6" result="shadowMatrixInner6"/><feMerge><feMergeNode in="shadowMatrixInner1"/><feMergeNode in="shadowMatrixInner2"/><feMergeNode in="shadowMatrixInner3"/><feMergeNode in="shadowMatrixInner4"/><feMergeNode in="shadowMatrixInner5"/><feMergeNode in="shadowMatrixInner6"/></feMerge></filter><filter x="-1.2%" y="-7.6%" width="102.3%" height="115.1%" filterUnits="objectBoundingBox" id="A"><feGaussianBlur stdDeviation=".5" in="SourceAlpha" result="shadowBlurInner1"/><feOffset in="shadowBlurInner1" result="shadowOffsetInner1"/><feComposite in="shadowOffsetInner1" in2="SourceAlpha" operator="arithmetic" k2="-1" k3="1" result="shadowInnerInner1"/><feColorMatrix values="0 0 0 0 0 0 0 0 0 0 0 0 0 0 0 0 0 0 1 0" in="shadowInnerInner1" result="shadowMatrixInner1"/><feOffset dx="1" in="SourceAlpha" result="shadowOffsetInner2"/><feComposite in="shadowOffsetInner2" in2="SourceAlpha" operator="arithmetic" k2="-1" k3="1" result="shadowInnerInner2"/><feColorMatrix values="0 0 0 0 1 0 0 0 0 1 0 0 0 0 1 0 0 0 0.05 0" in="shadowInnerInner2" result="shadowMatrixInner2"/><feOffset dx="-1" in="SourceAlpha" result="shadowOffsetInner3"/><feComposite in="shadowOffsetInner3" in2="SourceAlpha" operator="arithmetic" k2="-1" k3="1" result="shadowInnerInner3"/><feColorMatrix values="0 0 0 0 1 0 0 0 0 1 0 0 0 0 1 0 0 0 0.05 0" in="shadowInnerInner3" result="shadowMatrixInner3"/><feMerge><feMergeNode in="shadowMatrixInner1"/><feMergeNode in="shadowMatrixInner2"/><feMergeNode in="shadowMatrixInner3"/></feMerge></filter><filter x="0%" y="0%" width="100%" height="100%" filterUnits="objectBoundingBox" id="E"><feGaussianBlur in="SourceGraphic"/></filter><filter x="0%" y="0%" width="100%" height="100%" filterUnits="objectBoundingBox" id="F"><feGaussianBlur in="SourceGraphic"/></filter><path d="M79.757 0h237.486c26.968 0 36.748 2.808 46.607 8.08 9.86 5.274 17.597 13.011 22.87 22.87 5.273 9.86 8.08 19.64 8.08 46.608v645.884c0 26.969-2.807 36.748-8.08 46.608-5.273 9.859-13.01 17.596-22.87 22.87-9.86 5.272-19.639 8.08-46.607 8.08H79.757c-26.968 0-36.748-2.808-46.607-8.08-9.86-5.274-17.597-13.011-22.87-22.87-5.273-9.86-8.08-19.64-8.08-46.608V77.558c0-26.969 2.807-36.748 8.08-46.608 5.273-9.859 13.01-17.596 22.87-22.87C43.01 2.809 52.789 0 79.757 0z" id="a"/><path d="M79.757 0h237.486c26.968 0 36.748 2.808 46.607 8.08 9.86 5.274 17.597 13.011 22.87 22.87 5.273 9.86 8.08 19.64 8.08 46.608v645.884c0 26.969-2.807 36.748-8.08 46.608-5.273 9.859-13.01 17.596-22.87 22.87-9.86 5.272-19.639 8.08-46.607 8.08H79.757c-26.968 0-36.748-2.808-46.607-8.08-9.86-5.274-17.597-13.011-22.87-22.87-5.273-9.86-8.08-19.64-8.08-46.608V77.558c0-26.969 2.807-36.748 8.08-46.608 5.273-9.859 13.01-17.596 22.87-22.87C43.01 2.809 52.789 0 79.757 0z" id="c"/><path d="M79.447 1.1h238.106c26.479 0 36.08 2.757 45.76 7.934s17.277 12.774 22.454 22.454c5.177 9.68 7.934 19.282 7.934 45.76v646.504c0 26.478-2.757 36.08-7.934 45.76s-12.774 17.277-22.454 22.454c-9.68 5.177-19.281 7.934-45.76 7.934H79.447c-26.479 0-36.08-2.757-45.76-7.934s-17.277-12.774-22.454-22.454c-5.177-9.68-7.934-19.282-7.934-45.76V77.248c0-26.478 2.757-36.08 7.934-45.76S24.007 14.211 33.687 9.034C43.367 3.857 52.968 1.1 79.447 1.1z" id="d"/><path d="M79.757 0h237.486c26.968 0 36.748 2.808 46.607 8.08 9.86 5.274 17.597 13.011 22.87 22.87 5.273 9.86 8.08 19.64 8.08 46.608v645.884c0 26.969-2.807 36.748-8.08 46.608-5.273 9.859-13.01 17.596-22.87 22.87-9.86 5.272-19.639 8.08-46.607 8.08H79.757c-26.968 0-36.748-2.808-46.607-8.08-9.86-5.274-17.597-13.011-22.87-22.87-5.273-9.86-8.08-19.64-8.08-46.608V77.558c0-26.969 2.807-36.748 8.08-46.608 5.273-9.859 13.01-17.596 22.87-22.87C43.01 2.809 52.789 0 79.757 0z" id="f"/><path d="M78.205 5.501h240.59c24.517 0 33.407 2.553 42.37 7.347 8.963 4.793 15.997 11.827 20.79 20.79 4.794 8.963 7.347 17.853 7.347 42.37v648.984c0 24.517-2.553 33.407-7.346 42.37-4.794 8.963-11.828 15.997-20.79 20.79-8.964 4.794-17.854 7.347-42.37 7.347H78.204c-24.517 0-33.407-2.553-42.37-7.347-8.963-4.793-15.997-11.827-20.79-20.79-4.794-8.963-7.347-17.853-7.347-42.37V76.008c0-24.517 2.553-33.407 7.346-42.37 4.794-8.963 11.828-15.997 20.79-20.79C44.799 8.054 53.689 5.5 78.205 5.5z" id="g"/><path d="M395.9 75.919h1.1v94.624h-1.1a1.1 1.1 0 01-1.1-1.1V77.019a1.1 1.1 0 011.1-1.1z" id="n"/><path d="M1.1 59.415h1.1v59.415H1.1a1.1 1.1 0 01-1.1-1.1V60.515a1.1 1.1 0 011.1-1.1z" id="p"/><path d="M1.1 0h1.1v30.808H1.1a1.1 1.1 0 01-1.1-1.1V1.1A1.1 1.1 0 011.1 0z" id="r"/><path d="M1.1 135.334h1.1v59.415H1.1a1.1 1.1 0 01-1.1-1.1v-57.215a1.1 1.1 0 011.1-1.1z" id="t"/><path d="M56.405 0h242.4c19.613 0 26.726 2.042 33.896 5.877 7.17 3.835 12.798 9.462 16.633 16.632 3.834 7.17 5.877 14.283 5.877 33.896v650.78c0 19.614-2.043 26.726-5.877 33.896-3.835 7.17-9.462 12.798-16.633 16.633-7.17 3.834-14.283 5.877-33.896 5.877h-242.4c-19.613 0-26.725-2.043-33.896-5.877-7.17-3.835-12.797-9.462-16.632-16.633C2.042 733.911 0 726.8 0 707.185V56.405C0 36.792 2.042 29.68 5.877 22.51c3.835-7.17 9.462-12.797 16.632-16.632C29.68 2.042 36.792 0 56.405 0z" id="v"/><path d="M254.49 157.08H15.84C7.092 157.08 0 149.988 0 141.24V15.84C0 7.092 7.092 0 15.84 0h238.65c8.748 0 15.84 7.092 15.84 15.84v125.4c0 8.749-7.092 15.84-15.84 15.84" id="x"/><radialGradient cx="50%" cy="0%" fx="50%" fy="0%" r="204.024%" gradientTransform="matrix(0 .49014 -1 0 .5 -.245)" id="b"><stop stop-color="#203C47" offset="0%"/><stop stop-color="#1E3645" offset="100%"/></radialGradient><radialGradient cx="50%" cy="50%" fx="50%" fy="50%" r="91.42%" gradientTransform="matrix(0 .74962 -.60538 0 .803 .125)" id="C"><stop stop-color="#0C3C6E" offset="0%"/><stop offset="100%"/></radialGradient><radialGradient cx="50%" cy="52.077%" fx="50%" fy="52.077%" r="88.649%" gradientTransform="matrix(0 .74962 -.60538 0 .815 .146)" id="D"><stop stop-color="#2D455D" offset="0%"/><stop offset="100%"/></radialGradient><linearGradient x1="50%" y1="0%" x2="50%" y2="100%" id="e"><stop stop-color="#C3D8DF" offset="0%"/><stop stop-color="#7FA0B2" offset="51.23%"/><stop stop-color="#A2B7C8" offset="100%"/></linearGradient><linearGradient x1="-30.857%" y1="50%" x2="100%" y2="50%" id="B"><stop offset="0%"/><stop stop-color="#1B1B1B" offset="100%"/></linearGradient><rect id="z" x="76.981" y="7.702" width="42.889" height="6.602" rx="3.3"/></defs><g fill="none" fill-rule="evenodd"><path d="M575.625 84.479c-28.92-6.775-60.692-5.499-89.467-1.444-64.878 9.148-157.192 30.787-165.059 109.123-4.115 40.98 31.726 87.682 58.402 115.863 35.555 37.564 68.362 73.05 114.769 97.306 46.002 24.047 106.56 17.518 151.821-3.36 33.688-15.54 54.211-51.406 65.544-86.009 15.712-47.987-.617-97.778-27.65-138.241-15.01-22.468-32.753-44.768-52.049-63.678-15.772-15.457-35.286-24.636-56.311-29.56M255.625 404.479c-28.92-6.775-60.692-5.499-89.467-1.444C101.28 412.183 8.966 433.822 1.099 512.158c-4.115 40.98 31.726 87.682 58.402 115.863 35.555 37.564 68.362 73.05 114.769 97.306 46.002 24.047 106.56 17.518 151.821-3.36 33.688-15.54 54.211-51.406 65.544-86.009 15.712-47.987-.617-97.778-27.65-138.241-15.01-22.468-32.753-44.768-52.049-63.678-15.772-15.457-35.286-24.636-56.311-29.56" fill="#0084FF"/><circle fill="#FEB801" cx="371.5" cy="399.5" r="301.5"/><g transform="translate(173)"><use fill="url(#b)" xlink:href="#a"/><path stroke="#375161" stroke-width="3.3" d="M318.033 1.65c25.904.054 35.441 2.753 45.039 7.886 9.567 5.116 17.076 12.625 22.193 22.193.207.387.41.775.61 1.164l.296.584c4.593 9.163 6.98 19.17 6.98 44.08h0v645.885c0 24.912-2.387 34.918-6.98 44.081l-.296.584c-.2.389-.403.777-.61 1.164-5.117 9.568-12.626 17.077-22.193 22.193-9.695 5.185-19.328 7.886-45.829 7.886h0H79.757c-26.501 0-36.134-2.701-45.829-7.886-9.567-5.116-17.076-12.625-22.193-22.193-.207-.387-.41-.775-.61-1.164l-.296-.584c-4.593-9.163-6.98-19.17-6.98-44.08h0V77.557c0-24.912 2.387-34.918 6.98-44.081l.296-.584c.2-.389.403-.777.61-1.164 5.117-9.568 12.626-17.077 22.193-22.193 9.596-5.132 19.13-7.83 45.025-7.885h0z"/><path stroke="url(#e)" stroke-width="1.1" d="M317.553 1.65c26.323 0 35.876 2.722 45.5 7.87 9.584 5.124 17.104 12.645 22.229 22.227l.152.286.3.572c.248.477.49.955.725 1.436l.28.579c4.156 8.71 6.362 18.685 6.411 41.838h0v648.079c-.054 25.729-2.772 35.187-7.868 44.716-5.125 9.582-12.645 17.103-22.228 22.228-9.625 5.147-19.178 7.869-45.5 7.869h0H79.446c-26.323 0-35.876-2.722-45.5-7.87-9.584-5.124-17.104-12.645-22.229-22.227l-.152-.286-.3-.572c-.248-.477-.49-.955-.725-1.436l-.28-.579c-4.156-8.71-6.362-18.685-6.411-41.838h0V76.463c.054-25.729 2.772-35.187 7.868-44.716 5.125-9.582 12.645-17.103 22.228-22.228 9.625-5.147 19.178-7.869 45.5-7.869h0z"/><path stroke="#081A25" stroke-width="1.1" d="M317.243.55c22.523 0 32.992 1.956 41.577 5.69l.61.27a67.017 67.017 0 014.16 2.056c9.763 5.22 17.424 12.882 22.645 22.644 5.243 9.804 8.016 19.535 8.016 46.348h0v645.884c0 26.813-2.773 36.544-8.016 46.348-5.221 9.762-12.882 17.423-22.644 22.644a67.017 67.017 0 01-4.16 2.056l-.611.27c-8.585 3.734-19.054 5.69-41.577 5.69h0H79.757c-22.523 0-32.992-1.956-41.577-5.69l-.61-.27a67.017 67.017 0 01-4.16-2.056c-9.763-5.22-17.424-12.882-22.645-22.644-5.243-9.804-8.016-19.535-8.016-46.348h0V77.558c0-26.813 2.773-36.544 8.016-46.348 5.221-9.762 12.882-17.423 22.644-22.644C43.115 3.376 52.75.606 78.953.55h0z"/><use fill="#000" xlink:href="#g"/><path fill="#3D4C53" opacity=".8" d="M2.2 712.978h5.498v4.401H2.2z"/><path fill="#202D34" filter="url(#h)" d="M0 712.978h1.1v4.401H0z" transform="translate(2.2)"/><path fill="#3D4C53" opacity=".8" d="M81.38 801v-5.501h4.398V801z"/><path fill="#202D34" filter="url(#i)" transform="rotate(-90 82.48 799.35)" d="M80.83 798.25h1.1v4.4h-1.1z"/><path fill="#47555E" opacity=".8" d="M2.2 80.32h5.498v4.401H2.2zM389.301 80.32h5.5v4.401h-5.5z"/><path fill="#414B52" filter="url(#j)" d="M391.501 80.32h1.1v4.401h-1.1z" transform="translate(2.2)"/><path fill="#414B52" filter="url(#k)" d="M0 80.32h1.1v4.401H0z" transform="translate(2.2)"/><path fill="#47555E" opacity=".8" d="M311.222 5.501V0h4.398v5.501z"/><path fill="#414B52" filter="url(#l)" transform="rotate(-90 312.321 -.55)" d="M310.671-1.65h1.1v4.4h-1.1z"/><path fill="#3D4C53" opacity=".8" d="M394.801 712.978h-5.499v4.401h5.499z"/><path fill="#202D34" filter="url(#m)" transform="matrix(-1 0 0 1 786.302 0)" d="M391.501 712.978h1.1v4.401h-1.1z"/><g><g transform="matrix(-1 0 0 1 791.8 126.532)"><use fill="#91ADBE" xlink:href="#n"/><use fill="#000" filter="url(#o)" xlink:href="#n"/></g><g transform="translate(0 126.532)"><use fill="#91ADBE" xlink:href="#p"/><use fill="#000" filter="url(#q)" xlink:href="#p"/></g><g transform="translate(0 126.532)"><use fill="#91ADBE" xlink:href="#r"/><use fill="#000" filter="url(#s)" xlink:href="#r"/></g><g transform="translate(0 126.532)"><use fill="#91ADBE" xlink:href="#t"/><use fill="#000" filter="url(#u)" xlink:href="#t"/></g></g></g><g transform="translate(193.895 18.705)"><mask id="w" fill="#fff"><use xlink:href="#v"/></mask><use fill="#FFF" xlink:href="#v"/><g mask="url(#w)"><path d="M359.855 45.758v671.148c0 25.88-20.967 46.857-46.835 46.857H43.188c-25.868 0-46.837-20.978-46.837-46.857V45.758C-3.649 19.88 17.321-1.1 43.188-1.1H313.02c25.868 0 46.835 20.98 46.835 46.858" fill="#FDFDFE"/><path d="M277.48 70.43h-.99a5.751 5.751 0 01-5.74 5.743 5.749 5.749 0 01-5.74-5.744 5.75 5.75 0 015.74-5.743 5.751 5.751 0 015.74 5.743h1.98a7.723 7.723 0 00-7.72-7.724 7.722 7.722 0 00-7.72 7.724 7.722 7.722 0 007.72 7.724 7.723 7.723 0 007.72-7.724h-.99" fill="#091E4A"/><path d="M274.883 75.81l3.619 3.619a.987.987 0 001.4 0 .991.991 0 000-1.4l-3.62-3.619a.989.989 0 10-1.399 1.4M313.986 64.325v8.926a.743.743 0 001.485 0v-8.926a.743.743 0 00-1.485 0" fill="#091E4A"/><path d="M316.45 74.974h.743a2.467 2.467 0 00-2.465-2.465 2.467 2.467 0 00-2.464 2.465 2.465 2.465 0 004.929 0h-1.485a.98.98 0 01-1.96 0c.003-.54.44-.98.98-.98s.978.438.98.98h.743" fill="#091E4A"/><path d="M313.986 76.696V78.1a.743.743 0 001.485 0v-1.404a.743.743 0 00-1.485 0M321.574 78.1v-8.924a.742.742 0 10-1.485 0V78.1a.743.743 0 001.485 0" fill="#091E4A"/><path d="M322.555 67.45h-.742a.984.984 0 01-.982.983.982.982 0 01-.978-.982.979.979 0 011.96 0h1.483a2.464 2.464 0 10-4.927 0c0 1.362 1.1 2.465 2.462 2.467a2.467 2.467 0 002.465-2.467h-.74" fill="#091E4A"/><path d="M321.574 65.73v-1.405a.743.743 0 00-1.485 0v1.405a.743.743 0 001.485 0M326.192 64.325v8.926a.743.743 0 001.484 0v-8.926a.743.743 0 00-1.484 0" fill="#091E4A"/><path d="M328.658 74.974h.74a2.464 2.464 0 10-4.928-.003 2.464 2.464 0 004.928.003h-1.482a.982.982 0 01-.982.979.983.983 0 01-.978-.979.983.983 0 01.978-.98c.542 0 .98.44.982.98h.742" fill="#091E4A"/><path d="M326.192 76.696V78.1a.743.743 0 001.484 0v-1.404a.743.743 0 00-1.484 0M33.178 75.464l-4.248-4.252 4.248-4.25a.99.99 0 00-1.4-1.4l-4.948 4.95a.991.991 0 000 1.4l4.948 4.952a.99.99 0 001.4-1.4" fill="#091E4A"/><path d="M27.528 72.202h17.693a.99.99 0 100-1.98H27.528a.99.99 0 000 1.98" fill="#091E4A"/><text font-family="Poppins-SemiBold, Poppins" font-size="20.307" font-weight="500" transform="translate(-4.399 -1.1)"><tspan x="28.938" y="148.357" fill="#091E4A">Today</tspan></text><text font-family="Poppins-Regular, Poppins" font-size="11.077" transform="translate(-4.399 -1.1)"><tspan x="28.938" y="125.815" fill="#5C6B8A">Aug, 13 2020</tspan></text><text font-family="Poppins-Light, Poppins" font-size="11.077" font-weight="300" transform="translate(-4.399 -1.1)"><tspan x="30.579" y="203.475" fill="#C7CEDE">MON</tspan></text><text font-family="Poppins-SemiBold, Poppins" font-size="11.077" font-weight="500" transform="translate(-4.399 -1.1)"><tspan x="37.825" y="222.63" fill="#091E4A">10</tspan></text><text font-family="Poppins-Light, Poppins" font-size="11.077" font-weight="300" letter-spacing="0" transform="translate(-4.399 -1.1)"><tspan x="80.696" y="203.475" fill="#C7CEDE">TUE</tspan></text><text font-family="Poppins-SemiBold, Poppins" font-size="11.077" font-weight="500" transform="translate(-4.399 -1.1)"><tspan x="86.012" y="222.63" fill="#091E4A">11</tspan></text><text font-family="Poppins-Light, Poppins" font-size="11.077" font-weight="300" letter-spacing="0" transform="translate(-4.399 -1.1)"><tspan x="124.653" y="203.475" fill="#C7CEDE">WED</tspan></text><text font-family="Poppins-SemiBold, Poppins" font-size="11.077" font-weight="500" transform="translate(-4.399 -1.1)"><tspan x="131.452" y="222.63" fill="#091E4A">12</tspan></text><text font-family="Poppins-Regular, Poppins" font-size="11.077" letter-spacing="0" transform="translate(-4.399 -1.1)"><tspan x="172.69" y="203.475" fill="#0084FF">THU</tspan></text><text font-family="Poppins-Bold, Poppins" font-size="11.077" font-weight="bold" transform="translate(-4.399 -1.1)"><tspan x="177.818" y="222.63" fill="#0084FF">13</tspan></text><text font-family="Poppins-Light, Poppins" font-size="11.077" font-weight="300" letter-spacing="0" transform="translate(-4.399 -1.1)"><tspan x="222.618" y="203.475" fill="#C7CEDE">FRI</tspan></text><text font-family="Poppins-SemiBold, Poppins" font-size="11.077" font-weight="500" transform="translate(-4.399 -1.1)"><tspan x="224.202" y="222.63" fill="#091E4A">14</tspan></text><text font-family="Poppins-Light, Poppins" font-size="11.077" font-weight="300" transform="translate(-4.399 -1.1)"><tspan x="266.823" y="203.475" fill="#C7CEDE">SAT</tspan></text><text font-family="Poppins-SemiBold, Poppins" font-size="11.077" font-weight="500" transform="translate(-4.399 -1.1)"><tspan x="270.912" y="222.63" fill="#091E4A">15</tspan></text><text font-family="Poppins-Light, Poppins" font-size="11.077" font-weight="300" letter-spacing="0" transform="translate(-4.399 -1.1)"><tspan x="312.468" y="203.475" fill="#C7CEDE">SUN</tspan></text><text font-family="Poppins-SemiBold, Poppins" font-size="11.077" font-weight="500" transform="translate(-4.399 -1.1)"><tspan x="317.549" y="222.63" fill="#091E4A">16</tspan></text><path d="M180.323 238.806a1.47 1.47 0 10-2.941 0 1.47 1.47 0 002.941 0" fill="#0084FF"/><path d="M294.67 401.846a1.567 1.567 0 11-3.13-.002 1.567 1.567 0 013.13.002M303.55 401.846a1.568 1.568 0 01-3.134 0 1.566 1.566 0 113.134 0M312.427 401.846a1.566 1.566 0 11-3.132 0 1.566 1.566 0 013.132 0" fill="#FFF"/><path d="M315.951 698.897H74.213c-7.896 0-14.296-6.4-14.296-14.294v-51.198c0-7.895 6.4-14.296 14.296-14.296h241.738c7.896 0 14.296 6.401 14.296 14.296v51.198c0 7.895-6.4 14.294-14.296 14.294" fill="#F1F4FD"/><text font-family="Poppins-Medium, Poppins" font-size="11.88" font-weight="400" transform="translate(-4.399 -1.1)"><tspan x="82.136" y="642.06" fill="#5C6B8A">Stackholder Interview</tspan></text><text font-family="Poppins-Light, Poppins" font-size="9.9" font-weight="300" transform="translate(-4.399 -1.1)"><tspan x="82.483" y="662.539" fill="#5C6B8A">Lorem ipsum dolor sit amet </tspan></text><text font-family="Poppins-Light, Poppins" font-size="9.9" font-weight="300" transform="translate(-4.399 -1.1)"><tspan x="82.483" y="682.339" fill="#5C6B8A">consectetuer .</tspan></text><text font-family="Poppins-Medium, Poppins" font-size="11.88" font-weight="400" transform="translate(-4.399 -1.1)"><tspan x="282.055" y="642.06" fill="#5C6B8A">12 : 30</tspan></text><path d="M296.898 684.16a1.568 1.568 0 01-3.135 0 1.568 1.568 0 013.134 0M305.774 684.16a1.567 1.567 0 11-3.134-.002 1.567 1.567 0 013.134.002M314.65 684.16a1.566 1.566 0 11-3.131 0 1.566 1.566 0 013.131 0" fill="#5C6B8A"/><path d="M42.527 272.326h-.99a7.194 7.194 0 01-7.183 7.183 7.195 7.195 0 01-7.184-7.183 7.195 7.195 0 017.184-7.184 7.193 7.193 0 017.183 7.184h1.98a9.163 9.163 0 10-18.327 0 9.163 9.163 0 0018.327 0h-.99" fill="#C7CEDE"/><path d="M39.432 272.326a5.08 5.08 0 11-10.16-.001 5.08 5.08 0 0110.16 0M33.364 284.778v136.454a.99.99 0 001.98 0V284.778a.99.99 0 10-1.98 0M39.268 436.666a4.915 4.915 0 11-9.83-.002 4.915 4.915 0 019.83.002M33.364 447.184V518.7a.99.99 0 001.98 0v-71.517a.99.99 0 00-1.98 0M39.268 530.344a4.916 4.916 0 11-9.83 0 4.916 4.916 0 019.83 0M33.364 540.863v71.516a.99.99 0 001.98 0v-71.516a.99.99 0 00-1.98 0M39.268 624.023a4.915 4.915 0 11-9.83-.002 4.915 4.915 0 019.83.002M33.364 634.541v62.123a.99.99 0 101.98 0V634.54a.99.99 0 00-1.98 0" fill="#C7CEDE"/><path d="M315.951 511.54H74.213c-7.896 0-14.296-6.4-14.296-14.294v-51.199c0-7.894 6.4-14.296 14.296-14.296h241.738c7.896 0 14.296 6.402 14.296 14.296v51.199c0 7.894-6.4 14.294-14.296 14.294" fill="#F1F4FD"/><text font-family="Poppins-Medium, Poppins" font-size="11.88" font-weight="400" transform="translate(-4.399 -1.1)"><tspan x="82.136" y="454.702" fill="#5C6B8A">Team Meetin</tspan> <tspan x="159.463" y="454.702" letter-spacing="113.184" fill="#5C6B8A">g</tspan> <tspan x="280.667" y="454.702" letter-spacing="-.001" fill="#5C6B8A">1</tspan> <tspan x="284.313" y="454.702" fill="#5C6B8A">0 : 30</tspan></text><path d="M296.898 496.802a1.568 1.568 0 01-3.135 0 1.568 1.568 0 013.134 0M305.774 496.802a1.567 1.567 0 11-3.134-.001 1.567 1.567 0 013.134.001M314.65 496.802a1.566 1.566 0 11-3.131.001 1.566 1.566 0 013.131 0" fill="#5C6B8A"/><text font-family="Poppins-Light, Poppins" font-size="9.9" font-weight="300" transform="translate(-4.399 -1.1)"><tspan x="82.483" y="473.781" fill="#5C6B8A">Lorem ipsum dolor sit amet </tspan></text><path d="M315.951 605.22H74.213c-7.896 0-14.296-6.402-14.296-14.296v-51.197c0-7.896 6.4-14.298 14.296-14.298h241.738c7.896 0 14.296 6.402 14.296 14.298v51.197c0 7.894-6.4 14.295-14.296 14.295" fill="#F1F4FD"/><text font-family="Poppins-Medium, Poppins" font-size="11.88" font-weight="400" transform="translate(-4.399 -1.1)"><tspan x="82.136" y="548.38" fill="#5C6B8A">Client Updat</tspan> <tspan x="156.244" y="548.38" letter-spacing="119.944" fill="#5C6B8A">e</tspan> <tspan x="283.577" y="548.38" fill="#5C6B8A">11 : 00</tspan></text><path d="M296.898 590.482a1.567 1.567 0 11-3.135-.002 1.567 1.567 0 013.135.002M305.774 590.482a1.568 1.568 0 01-3.134 0 1.568 1.568 0 113.134 0M314.65 590.482a1.567 1.567 0 11-3.134-.002 1.567 1.567 0 013.134.002" fill="#5C6B8A"/><text font-family="Poppins-Light, Poppins" font-size="9.9" font-weight="300" transform="translate(-4.399 -1.1)"><tspan x="82.483" y="568.16" fill="#5C6B8A">Lorem ipsum dolor sit amet </tspan></text><path d="M42.446 763.572C16.573 763.572-4.4 742.6-4.4 716.727V690.14c0-6.174 5.002-11.178 11.175-11.178h341.241c6.174 0 11.175 5.004 11.175 11.178v26.587c0 25.873-20.972 46.845-46.844 46.845H42.446z" fill="#FFF"/><path d="M44.42 702.128l-.525-.524-7.55 7.55a.742.742 0 00-.217.524v9.158c0 .194.079.386.218.524.138.139.33.218.524.218h15.098a.742.742 0 00.742-.742v-9.158a.734.734 0 00-.218-.525l-7.547-7.55a.743.743 0 00-1.05 0l.525.525-.525.525 7.33 7.332v8.108H37.613v-8.108l7.332-7.332-.525-.525-.525.525.525-.525" fill="#7966E4"/><path d="M117.927 718.836v-.743h-11.262a1.243 1.243 0 01-1.237-1.237v-10.273a1.242 1.242 0 011.237-1.237h11.262a1.238 1.238 0 011.238 1.237v10.273a1.242 1.242 0 01-1.238 1.237v1.485a2.723 2.723 0 002.723-2.722v-10.273a2.721 2.721 0 00-2.723-2.722h-11.262a2.723 2.723 0 00-2.722 2.722v10.273a2.726 2.726 0 002.722 2.722h11.262v-.742" fill="#C7CEDE"/><path d="M107.841 702.685v3.837a.743.743 0 001.485 0v-3.837a.743.743 0 00-1.485 0M115.266 702.685v3.837a.743.743 0 001.485 0v-3.837a.743.743 0 00-1.485 0M104.685 711.906h15.222a.743.743 0 000-1.485h-15.222a.743.743 0 000 1.485M108.667 715.204h1.154a.743.743 0 000-1.485h-1.154a.743.743 0 000 1.485M112.524 715.204h3.404a.743.743 0 000-1.485h-3.404a.743.743 0 000 1.485" fill="#C7CEDE"/><path d="M187.62 734.862h-21.45c-7.542 0-13.656-6.112-13.656-13.656v-21.45c0-7.543 6.114-13.658 13.656-13.658h21.45c7.543 0 13.658 6.115 13.658 13.658v21.45c0 7.544-6.115 13.656-13.658 13.656" fill="#0084FF"/><path d="M175.906 702.043v16.876a.99.99 0 001.98 0v-16.876a.99.99 0 00-1.98 0" fill="#FFF"/><path d="M185.333 709.492h-16.876a.99.99 0 000 1.98h16.876a.99.99 0 000-1.98" fill="#FFF"/><path d="M249.433 718.836v-.743h-11.632v-14.666h5.653l5.237 5.237v10.172h.742v-.743.743h.743v-10.479a.734.734 0 00-.218-.524l-5.67-5.673a.749.749 0 00-.526-.218h-6.704a.742.742 0 00-.742.743v16.15a.742.742 0 00.743.742l12.374.001a.745.745 0 00.743-.742h-.743" fill="#C7CEDE"/><path d="M243.762 708.357v.743h5.671a.744.744 0 00.525-1.267l-5.67-5.673a.742.742 0 00-1.267.525l-.001 5.672c0 .195.08.387.216.525a.75.75 0 00.526.218v-.743h.743v-3.878l3.136 3.136h-3.879v.742h.743-.743M240.482 712.565h2.764a.743.743 0 000-1.485h-2.764a.743.743 0 000 1.485M240.482 716.03h5.526a.743.743 0 000-1.485h-5.526a.743.743 0 000 1.485M314.773 707.326h-.742a2.604 2.604 0 01-2.6 2.6 2.605 2.605 0 01-2.598-2.6 2.6 2.6 0 012.598-2.598 2.601 2.601 0 012.6 2.598h1.485a4.083 4.083 0 00-4.085-4.083 4.082 4.082 0 00-4.083 4.083 4.085 4.085 0 004.083 4.085 4.086 4.086 0 004.085-4.085h-.743M311.43 712.785v-.743a7.23 7.23 0 00-7.23 7.231c0 .196.08.388.218.527a.752.752 0 00.524.216h12.981c.194 0 .386-.08.525-.216a.75.75 0 00.218-.527 7.234 7.234 0 00-7.235-7.23v1.484a5.756 5.756 0 015.75 5.746h.742v-.742h-12.98v.742h.742a5.755 5.755 0 015.746-5.746v-.742M122.947 756.89h108.9a1.98 1.98 0 100-3.96h-108.9a1.98 1.98 0 000 3.96" fill="#C7CEDE"/><path d="M314.407 421.232H75.757c-8.75 0-15.84-7.09-15.84-15.84v-125.4c0-8.747 7.09-15.84 15.84-15.84h238.65c8.747 0 15.84 7.093 15.84 15.84v125.4c0 8.75-7.093 15.84-15.84 15.84" fill="#0084FF"/><g transform="translate(59.917 264.152)"><mask id="y" fill="#fff"><use xlink:href="#x"/></mask><path d="M210.805 157.08h-20.714a62.225 62.225 0 01-1.068-11.506c0-34.197 27.724-61.921 61.92-61.921a61.885 61.885 0 0119.387 3.095v21.845a41.565 41.565 0 00-19.386-4.766c-23.055 0-41.744 18.691-41.744 41.747 0 3.99.56 7.85 1.605 11.505M8.043 35.474c-2.766 0-5.458-.315-8.042-.915v-12.03a23.834 23.834 0 008.042 1.387C21.252 23.916 31.962 13.21 31.962 0h11.56c0 19.592-15.884 35.474-35.479 35.474M148.39 119.691c-5.812 0-10.526-4.712-10.526-10.526 0-5.815 4.714-10.527 10.526-10.527 5.815 0 10.53 4.712 10.53 10.527 0 5.814-4.715 10.526-10.53 10.526m0-17.624a7.098 7.098 0 10.003 14.195 7.098 7.098 0 00-.003-14.195M169.67 33.941a5.264 5.264 0 010-10.528 5.265 5.265 0 110 10.528m0-8.813a3.549 3.549 0 10.002 7.097 3.549 3.549 0 00-.001-7.097" fill="#1F8DF4" mask="url(#y)"/></g><text font-family="Poppins-Medium, Poppins" font-size="13.86" font-weight="400" transform="translate(-4.399 -1.1)"><tspan x="82.136" y="300.235" fill="#FFF">Design Meetin</tspan> <tspan x="180.362" y="300.235" letter-spacing="81.318" fill="#FFF">g</tspan> <tspan x="271.036" y="300.235" fill="#FFF">09 : 30</tspan></text><text font-family="Poppins-Regular, Poppins" font-size="11" transform="translate(-4.399 -1.1)"><tspan x="82.483" y="396.176" fill="#FFF">Make a landing page app </tspan></text><text font-family="Poppins-Light, Poppins" font-size="9.9" font-weight="300" transform="translate(-4.399 -1.1)"><tspan x="82.483" y="312.776" fill="#FFF">mobile</tspan></text></g></g><path d="M273.075 18.705h197.95c-2.206 0-3.306 1.192-3.3 3.576-.002.92-.003 2.666-.004 5.235-.002 10.934-8.866 19.796-19.8 19.796H296.094c-10.935 0-19.8-8.865-19.8-19.8v-.083c.011-2.555.038-4.272.08-5.148-.113-2.33-1.213-3.522-3.3-3.576z" fill="#000"/><g transform="translate(273.075 18.705)"><use fill="#131313" xlink:href="#z"/><use fill="#000" filter="url(#A)" xlink:href="#z"/></g><g transform="translate(403.942 22.005)"><ellipse stroke="url(#B)" stroke-width="1.1" fill="#000" cx="7.148" cy="7.152" rx="6.598" ry="6.602"/><ellipse fill="url(#C)" cx="9.293" cy="7.152" rx="2.144" ry="2.861"/><ellipse fill="url(#D)" cx="5.004" cy="7.152" rx="2.144" ry="2.861"/><path fill="#3367A1" filter="url(#E)" d="M8.578 7.152h1.43v1.43h-1.43z"/><path fill="#213E60" filter="url(#F)" d="M4.289 7.152h1.43v1.43h-1.43z"/></g></g></svg>