<?xml version="1.0" encoding="UTF-8"?>
<svg width="135px" height="131px" viewBox="0 0 135 131" version="1.1" xmlns="http://www.w3.org/2000/svg" xmlns:xlink="http://www.w3.org/1999/xlink">
    <title>Group</title>
    <g id="Page-1" stroke="none" stroke-width="1" fill="none" fill-rule="evenodd">
        <g id="Group" transform="translate(1.166314, 0.768348)">
            <path d="M7.29827053,79.2316522 C7.02789881,79.2316522 6.76175164,79.1021576 6.5986837,78.8625084 C5.50283332,77.2564386 4.50752743,75.6150521 3.6406481,73.9829152 C1.20814753,69.4077185 -2.29992554,60.5364954 1.53597324,52.5338954 C4.10450458,47.174163 9.04723759,43.7618954 13.8269027,40.461464 C15.104409,39.579387 16.3109428,38.7469215 17.4769209,37.8757758 C34.4664038,25.184461 52.8440766,12.3123583 72.1105964,4.1247659 C74.9765366,2.90718001 77.8973961,1.94101552 80.7929083,1.2531804 C81.2440911,1.15059374 81.7028781,1.42387787 81.8101819,1.8762682 C81.9191755,2.32781766 81.6386648,2.78188975 81.1849473,2.88952165 C78.3832203,3.55465317 75.5527664,4.49054619 72.773852,5.67197448 C53.6729349,13.7889334 35.3966515,26.5929253 18.4908148,39.2211745 C17.2994894,40.1108195 16.0236729,40.9912148 14.7901019,41.8430204 C10.1920928,45.0181615 5.43693022,48.3009345 3.06019381,53.2578881 C-0.456328373,60.5970384 2.84981082,68.9006714 5.13360694,73.1966978 C5.97260419,74.7741779 6.93580344,76.3634302 7.99701244,77.9182066 C8.25893505,78.3024862 8.15754565,78.8255099 7.77142104,79.0861809 C7.62694115,79.1845632 7.46133847,79.2316522 7.29827053,79.2316522 Z M103.222617,113.231652 C103.095742,113.231652 102.968032,113.202817 102.847834,113.141755 C102.435488,112.93143 102.270216,112.420884 102.477223,112.002779 C107.306842,102.248965 109.346868,90.0823525 110.879392,79.4439873 C111.657339,74.0408444 112.277527,68.4901349 112.876847,63.1226115 C113.416068,58.3046466 113.972818,53.3230014 114.643923,48.4363416 C116.34005,36.0958719 118.662207,19.1935587 108.724176,8.89273091 C107.51385,7.63671856 106.169136,6.53420942 104.727595,5.61403832 C97.7728106,1.1743188 89.5208898,1.54662766 83.8240095,2.64320022 C83.3699285,2.73224903 82.9350457,2.42863498 82.8482361,1.9672773 C82.7630959,1.5076158 83.0602519,1.0632198 83.5134982,0.976715241 C92.1068144,-0.675352309 99.7477291,0.43224534 105.615725,4.1773841 C107.167446,5.16879425 108.615664,6.35611179 109.916974,7.70456528 C120.429283,18.6024441 118.041184,35.9813806 116.29748,48.6712609 C115.628879,53.5367185 115.073798,58.5073386 114.535411,63.3151266 C113.935257,68.6953712 113.313399,74.2596501 112.530443,79.6890836 C110.979556,90.4589017 108.910316,102.784954 103.968011,112.764358 C103.821938,113.061187 103.52812,113.231652 103.222617,113.231652 Z M77.318216,129.231652 C71.8278766,129.231652 66.3535613,128.049494 61.7403268,126.125739 C50.5353115,121.452917 41.1477589,112.972329 32.069723,104.770791 C30.3762358,103.241934 28.6987727,101.725762 27.0272131,100.251024 C21.8092823,95.6517698 15.8964145,90.4377597 11.0310123,84.6208321 C10.7316159,84.2631405 10.7780013,83.7295628 11.1355902,83.4285269 C11.4931791,83.1300278 12.0236589,83.1756905 12.3230553,83.5333821 C17.1066506,89.2522193 22.9680728,94.4205666 28.1404617,98.9809229 C29.8179248,100.459889 31.5004482,101.981135 33.1989956,103.51422 C42.1716102,111.620204 51.4495247,120.002702 62.3871917,124.56475 C73.0575103,129.013486 88.508894,129.354265 97.2242807,119.5892 C98.2970475,118.386748 99.325959,117.025321 100.282341,115.541282 C100.535352,115.14892 101.058241,115.0373 101.448722,115.290137 C101.839202,115.543819 101.95137,116.067249 101.698359,116.459611 C100.695592,118.017218 99.6127048,119.449675 98.4809021,120.71724 C93.0327313,126.821673 85.1581846,129.231652 77.318216,129.231652 L77.318216,129.231652 Z" id="Fill-6" fill="#0084FF"></path>
            <path d="M128.706087,22.7048629 C122.159201,13.2910087 109.487781,9.97470682 98.2196894,10 C76.8752332,10.0467819 54.4837832,14.914818 33.8409906,20.0304533 C26.9648561,21.7348171 18.9833261,22.3902764 13.4394215,27.3049493 C7.81680182,32.2891535 6.52858458,40.4845148 7.1379909,47.625884 C8.12912256,59.242692 13.2549068,70.0446276 18.2968976,80.5531752 C24.4899893,93.4588553 30.248879,108.005304 40.4098829,118.391748 C49.1582491,127.334994 63.884722,133.504621 76.0161396,127.792035 C88.6020728,121.864071 98.4101289,106.49851 105.353975,95.0674017 C110.81324,86.0800624 115.758742,76.697582 121.189229,67.6220567 C128.116994,56.0459499 136.712162,41.3969006 131.289292,27.5542443 C130.595246,25.7828931 129.724303,24.170955 128.706087,22.7048629" id="Fill-7" fill="#FEB801"></path>
            <g id="ui_ux_design" transform="translate(41.833686, 42.231652)" fill="#FFFFFF" fill-rule="nonzero">
                <path d="M37.45,31.11 L4,31.11 C2.8954305,31.11 2,30.2145695 2,29.11 L2,4.75 C2,3.6454305 2.8954305,2.75 4,2.75 L46.57,2.75 C47.6745695,2.75 48.57,3.6454305 48.57,4.75 L48.57,13.54 C48.57,14.0922847 49.0177153,14.54 49.57,14.54 C50.1222847,14.54 50.57,14.0922847 50.57,13.54 L50.57,4.75 C50.57,2.540861 48.779139,0.75 46.57,0.75 L4,0.75 C1.790861,0.75 0,2.540861 0,4.75 L0,29.13 C0,31.339139 1.790861,33.13 4,33.13 L17.2,33.13 C19.361313,33.2373634 21.0585676,35.021022 21.0585676,37.185 C21.0585676,39.348978 19.361313,41.1326366 17.2,41.24 C16.6477153,41.24 16.2,41.6877153 16.2,42.24 C16.2,42.7922847 16.6477153,43.24 17.2,43.24 L33.37,43.24 C33.9222847,43.24 34.37,42.7922847 34.37,42.24 C34.37,41.6877153 33.9222847,41.24 33.37,41.24 C31.208687,41.1326366 29.5114324,39.348978 29.5114324,37.185 C29.5114324,35.021022 31.208687,33.2373634 33.37,33.13 L37.47,33.13 C38.0222847,33.13 38.47,32.6822847 38.47,32.13 C38.47,31.5777153 38.0222847,31.13 37.47,31.13 L37.45,31.11 Z M29,41.22 L21.49,41.22 C23.4946663,38.8883085 23.4946663,35.4416915 21.49,33.11 L29,33.11 C28.0256818,34.2382304 27.4897191,35.6792956 27.49,37.17 C27.4830625,38.658888 28.0200206,40.0990736 29,41.22 Z" id="Shape"></path>
                <path d="M53.43,17 L43.43,17 C42.0106282,17 40.86,18.1506282 40.86,19.57 L40.86,22.23 C40.4387454,22.2412603 40.0407862,22.4257687 39.76,22.74 L35,22.74 L35,18.74 C35,18.1877153 34.5522847,17.74 34,17.74 L24.5,17.74 L24.5,15.02 C24.5,14.3993934 24.253465,13.8042053 23.8146299,13.3653701 C23.3757947,12.926535 22.7806066,12.68 22.16,12.68 L14.73,12.68 C13.4376537,12.68 12.39,13.7276537 12.39,15.02 L12.39,22.45 C12.39,23.7423463 13.4376537,24.79 14.73,24.79 L22.16,24.79 C22.7806066,24.79 23.3757947,24.543465 23.8146299,24.1046299 C24.253465,23.6657947 24.5,23.0706066 24.5,22.45 L24.5,19.74 L33,19.74 L33,23.74 C33,24.2922847 33.4477153,24.74 34,24.74 L39.81,24.74 C40.0877931,25.0582451 40.487616,25.2436176 40.91,25.25 L40.91,40.69 C40.91,42.1093718 42.0606282,43.26 43.48,43.26 L53.48,43.26 C54.8993718,43.26 56.05,42.1093718 56.05,40.69 L56.05,19.53 C56.0394932,18.8466034 55.7571998,18.1955406 55.2655375,17.7207675 C54.7738752,17.2459943 54.1133465,16.986622 53.43,17 Z M22.5,18.43 C22.4905038,18.5164065 22.4905038,18.6035935 22.5,18.69 C22.4895423,18.7730052 22.4895423,18.8569948 22.5,18.94 L22.5,22.4 C22.5,22.5877768 22.3477768,22.74 22.16,22.74 L14.73,22.74 C14.5422232,22.74 14.39,22.5877768 14.39,22.4 L14.39,14.97 C14.3952303,14.7844328 14.5444328,14.6352303 14.73,14.63 L22.16,14.63 C22.3477768,14.63 22.5,14.7822232 22.5,14.97 L22.5,18.43 Z M54,40.65 C53.9946559,40.9625619 53.7425619,41.2146559 53.43,41.22 L43.43,41.22 C43.1151977,41.22 42.8599089,40.9648023 42.8599089,40.65 L42.8599089,19.53 C42.8572607,19.3780034 42.916434,19.2314246 43.0239293,19.1239293 C43.1314246,19.016434 43.2780034,18.9572607 43.43,18.9599089 L53.43,18.9599089 C53.7448023,18.9599089 54,19.2151977 54,19.53 L54,40.65 Z" id="Shape"></path>
                <path d="M48.43,38 C47.8777153,38 47.43,38.4477153 47.43,39 C47.43,39.5522847 47.8777153,40 48.43,40 C48.9822847,40 49.43,39.5522847 49.43,39 C49.43,38.4477153 48.9822847,38 48.43,38 Z" id="Path"></path>
                <path d="M7.86,6.34 C7.30771525,6.34 6.86,6.78771525 6.86,7.34 C6.86,7.89228475 7.30771525,8.34 7.86,8.34 L11.4,8.34 C11.9522847,8.34 12.4,7.89228475 12.4,7.34 C12.4,6.78771525 11.9522847,6.34 11.4,6.34 L7.86,6.34 Z" id="Path"></path>
                <path d="M19.72,6.34 C19.1677153,6.34 18.72,6.78771525 18.72,7.34 C18.72,7.89228475 19.1677153,8.34 19.72,8.34 L23.25,8.34 C23.8022847,8.34 24.25,7.89228475 24.25,7.34 C24.25,6.78771525 23.8022847,6.34 23.25,6.34 L19.72,6.34 Z" id="Path"></path>
                <path d="M30.63,6.34 C30.0777153,6.34 29.63,6.78771525 29.63,7.34 C29.63,7.89228475 30.0777153,8.34 30.63,8.34 L41.7,8.34 C42.2522847,8.34 42.7,7.89228475 42.7,7.34 C42.7,6.78771525 42.2522847,6.34 41.7,6.34 L30.63,6.34 Z" id="Path"></path>
            </g>
        </g>
    </g>
</svg>