<?xml version="1.0" encoding="UTF-8"?>
<svg width="122px" height="107px" viewBox="0 0 122 107" version="1.1" xmlns="http://www.w3.org/2000/svg" xmlns:xlink="http://www.w3.org/1999/xlink">
    <title>Group 2</title>
    <g id="Page-1" stroke="none" stroke-width="1" fill="none" fill-rule="evenodd">
        <g id="Group-2">
            <path d="M105.717473,95 C105.517315,95 105.317874,94.916167 105.175826,94.7528002 C104.916122,94.4540108 104.947688,94.001886 105.24685,93.7425053 C106.86103,92.3395567 108.372621,90.827697 109.740011,89.2477677 C109.998998,88.9489784 110.451686,88.9153019 110.751565,89.1746825 C111.051444,89.4333467 111.084445,89.8854716 110.825458,90.1842609 C109.414306,91.8164963 107.853931,93.3763629 106.188096,94.8237358 C106.052505,94.9412453 105.88463,95 105.717473,95 Z M71.7910587,107 C64.1143039,107 56.1810569,105.459049 48.3198583,102.403191 C36.5658858,97.8324257 25.6462335,90.049537 17.5703307,80.4862349 C4.20751782,64.6636324 1.25929816,45.1094684 9.87700476,29.4583239 C17.576815,15.4703938 32.7941531,5.25019788 49.5893508,2.78322909 C64.0278459,0.664963806 78.712026,2.8765543 90.9379154,9.01503822 C104.092508,15.6187013 113.710967,26.2541582 118.753633,39.7725684 C123.516031,52.5393128 123.019618,67.0387229 117.389757,79.5537062 C116.101532,82.4185732 114.450183,85.1734756 112.480381,87.742451 C112.238298,88.0607695 111.785834,88.1193691 111.470262,87.875566 C111.154691,87.6324864 111.095611,87.178159 111.338414,86.8612873 C113.239771,84.3798495 114.834201,81.7211662 116.077036,78.9583058 C121.550551,66.7891322 122.033996,52.6912375 117.404167,40.2797078 C107.827496,14.6073164 80.024027,-0.220540533 49.7975706,4.21421568 C33.4382656,6.6167973 18.6251189,16.557741 11.1378514,30.1571778 C2.81770459,45.2700745 5.70324217,64.1970063 18.6690684,79.5515358 C35.6941004,99.7112286 63.0789687,109.698473 85.266267,103.834177 C89.8117993,102.632525 94.1671238,100.80364 98.2111993,98.3974411 C98.5541496,98.1934278 98.9958061,98.3070097 99.1989826,98.6513725 C99.4014385,98.9950118 99.2883225,99.4384875 98.9460927,99.6425007 C94.7867398,102.117427 90.3074921,103.998401 85.6329933,105.233332 C81.1695962,106.413281 76.5282396,107 71.7910587,107 L71.7910587,107 Z" id="Fill-19" fill="#FEB801"></path>
            <path d="M112.796326,37.4685727 C102.275308,9.25167609 72.6845373,-3.40654755 44.1489788,0.784282089 C28.1385452,3.13617452 12.7197245,12.8365501 4.81250715,27.2058355 C-4.45079111,44.0396309 0.507763927,63.4796166 12.4542943,77.633112 C28.3576879,96.4736812 55.559586,108.725755 80.0420899,102.25351 C93.3671216,98.7311202 105.695524,89.6563174 111.445307,76.867312 C116.973055,64.5730977 117.524889,50.1500465 112.796326,37.4685727" id="Fill-20" fill="#0084FF"></path>
            <g id="targer" transform="translate(30.000000, 24.000000)" fill="#FFFFFF" fill-rule="nonzero">
                <path d="M34.82,16.94 C29.2061422,13.4773984 21.8889148,14.7676796 17.7979711,19.9415745 C13.7070275,25.1154694 14.1390689,32.5330151 18.8030269,37.1969731 C23.4669849,41.8609311 30.8845306,42.2929725 36.0584255,38.2020289 C41.2323204,34.1110852 42.5226016,26.7938578 39.06,21.18 L37.6,22.64 C38.5209073,24.276112 39.0031786,26.1225223 39,28 C39,34.0751322 34.0751322,39 28,39 C21.9248678,39 17,34.0751322 17,28 C17,21.9248678 21.9248678,17 28,17 C29.8774777,16.9968214 31.723888,17.4790927 33.36,18.4 L34.82,16.94 Z" id="Path"></path>
                <path d="M28.7,23.06 C28.4688781,23.0195075 28.2346415,22.9994301 28,22.9999882 C25.2385763,22.9999882 23,25.2385763 23,28 C23,30.7614237 25.2385763,33 28,33 C30.7614237,33 33.0000118,30.7614237 33.0000118,28 C33.0005699,27.7653585 32.9804925,27.5311219 32.94,27.3 L30.12,30.12 C29.6951219,30.5470105 29.151536,30.8362261 28.56,30.95 C28.1896448,31.0166881 27.8103552,31.0166881 27.44,30.95 C26.848464,30.8362261 26.3048781,30.5470105 25.88,30.12 C24.7101865,28.9487298 24.7101865,27.0512702 25.88,25.88 L28.7,23.06 Z" id="Path"></path>
                <path d="M27.29,28.71 C27.4777666,28.8993127 27.7333625,29.0057983 28,29.0057983 C28.2666375,29.0057983 28.5222334,28.8993127 28.71,28.71 L48.5,8.92 L51.73,8.27 C51.9228384,8.23207133 52.1002255,8.13816053 52.24,8 L54.36,5.88 C54.6071773,5.63517727 54.7093485,5.27948398 54.6297794,4.94080485 C54.5502102,4.60212572 54.3003376,4.32914151 53.97,4.22 L52.33,3.67 L51.78,2.03 C51.6708585,1.69966239 51.3978743,1.44978984 51.0591951,1.37022065 C50.720516,1.29065145 50.3648227,1.39282266 50.12,1.64 L48,3.76 C47.8618395,3.8997745 47.7679287,4.07716158 47.73,4.27 L47.08,7.5 L27.29,27.29 C27.1006873,27.4777666 26.9942017,27.7333625 26.9942017,28 C26.9942017,28.2666375 27.1006873,28.5222334 27.29,28.71 Z M49.63,5 L50.39,4.23 L50.59,4.82 C50.6896799,5.11711688 50.9228831,5.35032006 51.22,5.45 L51.81,5.65 L51.04,6.41 L49.28,6.77 L49.63,5 Z" id="Shape"></path>
                <path d="M9.62,11 C9.86438988,11.2853762 10.2481184,11.4096819 10.613419,11.3218101 C10.9787195,11.2339383 11.2639383,10.9487195 11.3518101,10.583419 C11.4396819,10.2181184 11.3153762,9.83438988 11.03,9.59 L9.62,8.17 C9.36634144,7.9163414 8.996626,7.81727644 8.65012194,7.91012191 C8.30361787,8.00296739 8.03296739,8.27361787 7.94012191,8.62012194 C7.84727644,8.966626 7.9463414,9.33634144 8.2,9.59 L9.62,11 Z" id="Path"></path>
                <path d="M46.38,45 C45.9832397,44.6602232 45.3918058,44.6830677 45.0224368,45.0524368 C44.6530677,45.4218058 44.6302232,46.0132397 44.97,46.41 L46.38,47.83 C46.6336586,48.0836586 47.003374,48.1827236 47.3498781,48.0898781 C47.6963821,47.9970326 47.9670326,47.7263821 48.0598781,47.3798781 C48.1527236,47.033374 48.0536586,46.6636586 47.8,46.41 L46.38,45 Z" id="Path"></path>
                <path d="M9.62,45 L8.2,46.41 C7.94634134,46.6636586 7.84727633,47.033374 7.9401218,47.3798781 C8.03296726,47.7263822 8.30361778,47.9970327 8.65012188,48.0898782 C8.99662599,48.1827237 9.36634145,48.0836587 9.62,47.83 L11.03,46.41 C11.3153762,46.1656101 11.4396819,45.7818816 11.3518101,45.416581 C11.2639383,45.0512805 10.9787195,44.7660617 10.613419,44.6781899 C10.2481184,44.5903181 9.86438988,44.7146238 9.62,45 L9.62,45 Z" id="Path"></path>
                <path d="M55,27 L49,27 C48.8015864,22.8157437 47.35633,18.7864384 44.85,15.43 L43.42,16.86 C45.5725704,19.8207009 46.8165297,23.3440942 47,27 L45.72,27 C45.1677153,27 44.72,27.4477153 44.72,28 C44.72,28.5522847 45.1677153,29 45.72,29 L47,29 C46.5002296,38.7265975 38.7265975,46.5002296 29,47 L29,45.73 C29,45.1777153 28.5522847,44.73 28,44.73 C27.4477153,44.73 27,45.1777153 27,45.73 L27,47 C17.291501,46.5025151 9.52448849,38.7570777 9,29.05 L10.27,29.05 C10.8222847,29.05 11.27,28.6022847 11.27,28.05 C11.27,27.4977153 10.8222847,27.05 10.27,27.05 L9,27.05 C9.52448849,17.3429223 17.291501,9.5974849 27,9.1 L27,10.37 C27,10.9222847 27.4477153,11.37 28,11.37 C28.5522847,11.37 29,10.9222847 29,10.37 L29,9 C32.6559058,9.18347025 36.1792991,10.4274296 39.14,12.58 L40.57,11.15 C37.2135616,8.64367005 33.1842563,7.1984136 29,7 L29,1 C29,0.44771525 28.5522847,0 28,0 C27.4477153,0 27,0.44771525 27,1 L27,7.05 C16.1883944,7.55243426 7.52949549,16.1896859 7,27 L1,27 C0.44771525,27 0,27.4477153 0,28 C0,28.5522847 0.44771525,29 1,29 L7,29 C7.5045203,39.8298355 16.1701645,48.4954797 27,49 L27,55 C27,55.5522847 27.4477153,56 28,56 C28.5522847,56 29,55.5522847 29,55 L29,49 C39.8298355,48.4954797 48.4954797,39.8298355 49,29 L55,29 C55.5522847,29 56,28.5522847 56,28 C56,27.4477153 55.5522847,27 55,27 Z" id="Path"></path>
            </g>
        </g>
    </g>
</svg>