<?xml version="1.0" encoding="UTF-8"?>
<svg width="112px" height="115px" viewBox="0 0 112 115" version="1.1" xmlns="http://www.w3.org/2000/svg" xmlns:xlink="http://www.w3.org/1999/xlink">
    <title>Group 3</title>
    <g id="Page-1" stroke="none" stroke-width="1" fill="none" fill-rule="evenodd">
        <g id="Group-3" transform="translate(0.289005, 0.596436)">
            <path d="M0.363295159,29.9352644 C0.355008816,29.9043393 0.348765123,29.8728669 0.34437994,29.84016 C0.0683786642,27.7125249 -0.0428869463,25.6468142 0.0147885305,23.7022993 C0.148589639,19.1903487 1.85335602,15.4101818 5.0828393,12.4669976 C11.2520109,6.84470163 21.990021,5.00098277 32.299884,4.61242918 L33.4649407,4.57453357 L33.4649407,4.57453357 L34.6247283,4.54832175 C34.8174976,4.54488514 35.0099803,4.54190415 35.2021427,4.53936316 L36.3510057,4.52899276 L36.3510057,4.52899276 L37.4905718,4.52899276 C37.6796352,4.52899276 37.8682442,4.53082905 38.0563651,4.53229796 L39.178965,4.54533026 L39.178965,4.54533026 L40.2882403,4.56630085 L40.2882403,4.56630085 L41.3825798,4.59446061 L41.3825798,4.59446061 L42.9925602,4.64854132 L42.9925602,4.64854132 L44.0425118,4.69139673 L44.0425118,4.69139673 L45.5783584,4.76400949 L45.5783584,4.76400949 L47.0624746,4.84437054 L47.0624746,4.84437054 L48.9514289,4.95920173 L48.9514289,4.95920173 L51.973781,5.16446141 L51.973781,5.16446141 L54.1986806,5.32146981 L54.1986806,5.32146981 L60.2914507,5.718287 L60.2914507,5.718287 L62.1631022,5.84814294 L62.1631022,5.84814294 L64.085109,5.99258761 L64.085109,5.99258761 L65.3907421,6.09886041 L65.3907421,6.09886041 L66.7132353,6.21442437 L66.7132353,6.21442437 L68.0503808,6.34040239 L68.0503808,6.34040239 L69.3999704,6.47791738 C69.6258164,6.50186034 69.8520889,6.5263308 70.0787418,6.55135214 L71.4428578,6.70827804 C89.2261567,8.8391194 108.764744,14.6062274 108.229306,35.1112547 C107.721839,54.5562522 97.905417,76.5721791 81.296616,95.5143881 C79.4575681,97.6113956 77.5415501,99.6553709 75.6020133,101.587061 C75.3245947,101.861741 74.8785041,101.858264 74.6042353,101.578203 C74.3286046,101.298508 74.3311638,100.847782 74.6077174,100.572597 C76.5256159,98.663646 78.4194988,96.6432794 80.2377734,94.5695156 C96.632071,75.8726063 106.320423,54.1848845 106.819404,35.0677222 C107.328402,15.6366628 89.041872,10.1855381 71.4756878,8.12037811 L70.1261927,7.96801949 C69.9016233,7.94367992 69.6772545,7.91985225 69.4531276,7.89651414 L68.1115961,7.76218163 L68.1115961,7.76218163 L66.7778411,7.6385271 L66.7778411,7.6385271 L65.4538368,7.52447896 L65.4538368,7.52447896 L63.4904307,7.36907474 L63.4904307,7.36907474 L61.5600671,7.22925741 L61.5600671,7.22925741 L59.6694083,7.10141046 L59.6694083,7.10141046 L54.8651813,6.79073988 L54.8651813,6.79073988 L49.5293267,6.42306839 L49.5293267,6.42306839 L47.7475088,6.31236787 L47.7475088,6.31236787 L46.3307183,6.23325302 L46.3307183,6.23325302 L44.8518285,6.16033356 L44.8518285,6.16033356 L43.8344414,6.11642625 L43.8344414,6.11642625 L42.2657287,6.05951947 L42.2657287,6.05951947 L41.194158,6.02865688 L41.194158,6.02865688 L40.104105,6.00433913 L40.104105,6.00433913 L38.9973931,5.98732451 L38.9973931,5.98732451 L37.8758459,5.97837129 L37.8758459,5.97837129 L36.7412867,5.97823772 L36.7412867,5.97823772 L35.595539,5.98768208 C24.6635655,6.12529989 12.4638086,7.6621806 6.03157605,13.5238681 C3.09657209,16.1988498 1.54668638,19.6392083 1.42461731,23.7510073 C1.36945099,25.6204569 1.47685798,27.6091258 1.74324096,29.6627354 C1.79358069,30.0521474 1.52180638,30.4078096 1.13505575,30.4569334 C0.780914754,30.5024754 0.453892516,30.2733783 0.363295159,29.9352644 Z M2.19596912,36.7748967 L2.04281437,36.1923654 L2.04281437,36.1923654 C1.94499797,35.8136222 2.17290333,35.4268321 2.551586,35.3290018 C2.89399045,35.2406172 3.24286473,35.4184538 3.37897725,35.7333277 L3.41485955,35.837932 L3.41485955,35.837932 C4.86683165,41.5020446 7.13294384,47.1052951 9.50271321,52.5792625 L10.394848,54.6258065 L10.394848,54.6258065 L12.2099017,58.7581577 C12.6619794,59.7910748 13.10095,60.8017663 13.526462,61.8012391 L13.9474749,62.7973799 C20.7437832,79.0128633 28.0337853,92.3076083 36.2346993,103.442084 C42.7409587,112.278869 52.9395993,114.356436 63.5132321,108.999619 C66.1348389,107.672125 68.6441811,105.944817 70.972312,103.86698 C71.4985543,103.397316 72.0232802,102.919256 72.5473573,102.433299 C72.834013,102.167218 73.2823543,102.184271 73.5477384,102.471163 C73.8151756,102.757506 73.7976556,103.206768 73.5101322,103.472348 C72.9809961,103.964062 72.4491583,104.44843 71.9158039,104.924401 C69.4959007,107.08405 66.8849589,108.881131 64.1541123,110.263571 C52.9102666,115.960632 42.046229,113.723897 35.0934148,104.282693 C27.0138775,93.3111511 19.8154289,80.2734414 13.1071155,64.4540251 L12.639884,63.3458226 C12.2259689,62.3581491 11.7978942,61.3614313 11.3562409,60.3455184 L10.4550014,58.2850911 L10.4550014,58.2850911 L9.01835376,55.0140411 C6.42368444,49.0835679 3.8602869,42.9862152 2.19596912,36.7748967 Z" id="Shape" fill="#FEB801"></path>
            <path d="M51.0569011,109.617073 C53.9526775,108.832254 56.8213306,107.61906 59.5366721,106.046347 C81.2372478,93.480097 103.706006,70.5311825 109.66149,45.3315537 C115.916584,18.8564384 80.9757439,11.2347203 62.5319996,6.06505549 C49.1065822,2.30146644 12.3337256,-8.39520986 7.27009888,12.6956728 C4.19008739,25.5272178 8.67061138,41.136452 11.1486846,53.8416288 C14.1130576,69.0405366 18.2756212,84.1446885 24.7427576,98.2505063 C30.002713,109.723995 40.7022299,112.420051 51.0569011,109.617073" id="Fill-26" fill="#0084FF"></path>
            <g id="digital_marketing" transform="translate(33.710995, 31.403564)" fill="#FDFDFE" fill-rule="nonzero">
                <path d="M55,14.67 L55,14.67 L50,14.67 C49.5645099,14.7883495 49.2622499,15.1837149 49.2622499,15.635 C49.2622499,16.0862851 49.5645099,16.4816505 50,16.6 L50,16.6 L55,16.6 C55.4354901,16.4816505 55.7377501,16.0862851 55.7377501,15.635 C55.7377501,15.1837149 55.4354901,14.7883495 55,14.67 Z" id="Path"></path>
                <path d="M50,12.85 C50.2574695,12.8489747 50.5046225,12.7486807 50.69,12.57 L53.17,10 C53.5257172,9.61644684 53.5257172,9.02355316 53.17,8.64 C52.78505,8.27805742 52.18495,8.27805742 51.8,8.64 L49.3,11.21 C48.9380574,11.59495 48.9380574,12.19505 49.3,12.58 C49.4894488,12.7574375 49.7404681,12.8542593 50,12.85 Z" id="Path"></path>
                <path d="M50.73,18.77 C50.3353174,18.5400764 49.8350022,18.6068111 49.5143829,18.9321454 C49.1937635,19.2574798 49.1343394,19.7587159 49.37,20.15 L51.88,22.62 C52.059238,22.8018038 52.3047148,22.9028824 52.56,22.9 C52.9359487,22.8708289 53.2635225,22.6326611 53.4072014,22.2840284 C53.5508803,21.9353958 53.4862312,21.5355846 53.24,21.25 L50.73,18.77 Z" id="Path"></path>
                <path d="M45.76,12.38 L45.76,6.91 C45.7505393,6.57520578 45.5741015,6.26737812 45.29,6.09 C44.9997266,5.91999481 44.6402734,5.91999481 44.35,6.09 L41.52,7.55 C38.6722622,9.02435072 35.5166684,9.80554006 32.31,9.83 L24.84,9.88 C22.418787,9.90217774 20.2481902,11.3774901 19.3365111,13.6206142 C18.424832,15.8637382 18.9507651,18.4350087 20.67,20.14 C21.809851,21.2442488 23.3329925,21.864257 24.92,21.87 L26.69,21.87 L28.63,27.56 C29.0063515,28.6516761 30.0352762,29.3831773 31.19,29.3800103 L33.75,29.3800103 C34.0718537,29.3593144 34.3639733,29.184669 34.5345506,28.9109518 C34.705128,28.6372347 34.7332208,28.2980509 34.61,28 L32.13,21.79 L32.44,21.79 C35.5912949,21.7827367 38.7006673,22.5121379 41.52,23.92 L44.44,25.38 C44.5729523,25.4481232 44.7206313,25.4824672 44.87,25.48 C45.0498951,25.4831036 45.2269018,25.4345136 45.38,25.34 C45.6631994,25.1583359 45.8360604,24.8464346 45.84,24.51 L45.84,19.04 C47.329908,18.6097684 48.3515718,17.2407389 48.3400973,15.69 C48.313527,14.1350715 47.2614184,12.7852732 45.76,12.38 Z M24.88,19.9100145 C22.6536657,19.9158846 20.833646,18.1359142 20.79,15.91 C20.7746522,13.7668844 22.4315937,11.9828231 24.57,11.84 C23.9698555,13.2132561 23.7721825,14.7287489 24,16.21 C24.2905142,17.6094672 24.9860115,18.8926598 26,19.9 L24.88,19.9100145 Z M32.29,27.41 L31.16,27.41 C30.8314298,27.4077262 30.5395182,27.1997892 30.43,26.89 L28.69,21.81 L30.05,21.81 L32.29,27.41 Z M42.39,22.19 C39.3391873,20.6592593 35.9733009,19.8614449 32.56,19.86 L28.9,19.86 C27.4005444,18.9868605 26.3183663,17.5439565 25.9,15.86 C25.6967771,14.4358044 25.9785549,12.9846484 26.7,11.74 L32.26,11.74 C35.7726417,11.7173788 39.2301136,10.8641474 42.35,9.25 L43.77,8.51 L43.77,13.22 L43.77,13.22 L43.77,18.22 L43.77,18.22 L43.77,22.93 L42.39,22.19 Z M45.92,16.8 C45.8818449,16.8423813 45.8381121,16.879386 45.79,16.91 L45.79,14.51 C46.1404597,14.7763547 46.3582395,15.1815589 46.3870112,15.6208071 C46.415783,16.0600554 46.2527206,16.4902055 45.94,16.8 L45.92,16.8 Z" id="Shape"></path>
                <path d="M24.27,26.14 C23.7177153,26.14 23.27,26.5877153 23.27,27.14 L23.27,34.8 C23.2645093,36.6036919 21.8036919,38.0645093 20,38.07 L5.2,38.07 C3.3963081,38.0645093 1.93549073,36.6036919 1.93,34.8 L1.93,5.2 C1.93549073,3.3963081 3.3963081,1.93549073 5.2,1.93 L11.54,1.93 C11.5353022,1.97988965 11.5353022,2.03011035 11.54,2.08 C11.54,2.69303607 12.0369639,3.19 12.65,3.19 C13.2630361,3.19 13.76,2.69303607 13.76,2.08 C13.7646978,2.03011035 13.7646978,1.97988965 13.76,1.93 L20,1.93 C21.8075959,1.9299916 23.274489,3.39241249 23.28,5.2 C23.1695228,5.6065224 23.3256586,6.03868468 23.6704537,6.28072194 C24.0152487,6.5227592 24.4747513,6.5227592 24.8195463,6.28072194 C25.1643414,6.03868468 25.3204772,5.6065224 25.21,5.2 C25.2044846,2.32650247 22.8735028,-2.66453526e-15 20,-2.66453526e-15 L5.2,-2.66453526e-15 C2.3281193,-2.66453526e-15 0,2.3281193 0,5.2 L0,34.8 C0,37.6718807 2.3281193,40 5.2,40 L20,40 C22.8735028,40 25.2044846,37.6734975 25.21,34.8 L25.21,27.11 C25.1953731,26.5919304 24.7873547,26.1708901 24.27,26.14 Z" id="Path"></path>
                <path d="M8.39,7.88 C8.82549009,7.76165055 9.12775012,7.36628506 9.12775012,6.915 C9.12775012,6.46371494 8.82549009,6.06834945 8.39,5.95 L6.39,5.95 C5.9834776,5.83952285 5.55131532,5.99565861 5.30927806,6.34045366 C5.0672408,6.68524871 5.0672408,7.14475129 5.30927806,7.48954634 C5.55131532,7.83434139 5.9834776,7.99047715 6.39,7.88 L8.39,7.88 Z" id="Path"></path>
                <path d="M20.79,6.91 C20.79,6.35771525 20.3422847,5.91 19.79,5.91 L12.59,5.91 C12.1834776,5.79952285 11.7513153,5.95565861 11.5092781,6.30045366 C11.2672408,6.64524871 11.2672408,7.10475129 11.5092781,7.44954634 C11.7513153,7.79434139 12.1834776,7.95047715 12.59,7.84 L19.79,7.84 C20.3160642,7.84129033 20.753177,7.43477544 20.79,6.91 Z" id="Path"></path>
                <path d="M19,26.11 C18.8822011,25.766515 18.5874603,25.5138801 18.23,25.45 L14.9,25 L13.41,22 C13.2311011,21.6915978 12.9015343,21.5017719 12.545,21.5017719 C12.1884657,21.5017719 11.8588989,21.6915978 11.68,22 L10.19,25 L6.86,25.48 C6.51037589,25.5551833 6.22751287,25.8113461 6.11814575,26.1518286 C6.00877862,26.4923112 6.08955694,26.86528 6.33,27.13 L8.74,29.47 L8.17,32.79 C8.11665725,33.1490803 8.26210315,33.5088676 8.55,33.73 C8.84488065,33.9340302 9.22643258,33.9645544 9.55,33.81 L12.55,32.24 L15.55,33.81 C15.6893223,33.8813839 15.8434577,33.9190614 16,33.92 C16.2049842,33.9165926 16.4039682,33.8502646 16.57,33.73 C16.8578968,33.5088676 17.0033428,33.1490803 16.95,32.79 L16.38,29.47 L18.79,27.13 C19.045482,26.8561502 19.1265278,26.4624989 19,26.11 Z M14.64,28.42 C14.4180185,28.6434301 14.3142695,28.9583824 14.36,29.27 L14.69,31.16 L13,30.27 C12.7221277,30.1206594 12.3878723,30.1206594 12.11,30.27 L10.41,31.16 L10.74,29.27 C10.7857305,28.9583824 10.6819815,28.6434301 10.46,28.42 L9.08,27.08 L11,26.8 C11.3117357,26.7515219 11.5823152,26.5587804 11.73,26.28 L12.57,24.56 L13.42,26.28 C13.5676848,26.5587804 13.8382643,26.7515219 14.15,26.8 L16.04,27.08 L14.64,28.42 Z" id="Shape"></path>
                <path d="M8.69,19.24 C10.0732609,19.24 11.320317,18.4067438 11.849668,17.1287773 C12.379019,15.8508109 12.0864183,14.379808 11.1083052,13.4016948 C10.130192,12.4235817 8.65918907,12.130981 7.38122266,12.660332 C6.10325625,13.189683 5.27,14.4367391 5.27,15.82 C5.27,17.7088138 6.80118616,19.24 8.69,19.24 L8.69,19.24 Z M8.69,14.34 C9.29444966,14.3359567 9.84144791,14.6974931 10.0746324,15.2551675 C10.3078169,15.8128419 10.1809758,16.4561358 9.75355577,16.8835558 C9.32613575,17.3109758 8.6828419,17.4378169 8.12516752,17.2046324 C7.56749313,16.9714479 7.20595672,16.4244497 7.21,15.82 C7.21,15.4274796 7.36592812,15.0510358 7.64348196,14.773482 C7.9210358,14.4959281 8.2974796,14.34 8.69,14.34 Z" id="Shape"></path>
            </g>
        </g>
    </g>
</svg>